{
    "asset" : {
        "generator" : "Khronos glTF Blender I/O v0.9.36",
        "version" : "2.0"
    },
    "scene" : 0,
    "scenes" : [
        {
            "name" : "Scene",
            "nodes" : [
                0,
                1,
                2,
                3,
                4
            ]
        }
    ],
    "nodes" : [
        {
            "name" : "Field.001",
            "rotation" : [
                0.0644136369228363,
                0.041105542331933975,
                0.6775269508361816,
                0.7315179109573364
            ],
            "translation" : [
                9.863016128540039,
                6.351328372955322,
                -0.6834610104560852
            ]
        },
        {
            "name" : "Field",
            "rotation" : [
                -0.1051706075668335,
                -0.14355988800525665,
                -0.6915225982666016,
                0.7000901699066162
            ],
            "scale" : [
                1.417283296585083,
                1.417283296585083,
                1.417283296585083
            ],
            "translation" : [
                -9.40165901184082,
                13.72797679901123,
                0.25799745321273804
            ]
        },
        {
            "mesh" : 0,
            "name" : "Test 14 MD REMESH",
            "rotation" : [
                0.7071068286895752,
                0,
                0,
                0.7071067094802856
            ],
            "scale" : [
                0.990597128868103,
                0.990597128868103,
                0.990597128868103
            ],
            "translation" : [
                0.0362241268157959,
                0.035253047943115234,
                0.01724541187286377
            ]
        },
        {
            "name" : "Lamp",
            "rotation" : [
                0.16907575726509094,
                0.7558803558349609,
                -0.27217137813568115,
                0.570947527885437
            ],
            "scale" : [
                0.990597128868103,
                0.9905970692634583,
                0.9905972480773926
            ],
            "translation" : [
                4.074141025543213,
                5.883601665496826,
                -0.9787544012069702
            ]
        },
        {
            "name" : "Camera",
            "rotation" : [
                0.483536034822464,
                0.33687159419059753,
                -0.20870360732078552,
                0.7804827094078064
            ],
            "scale" : [
                0.9905970692634583,
                0.990597128868103,
                0.990597128868103
            ],
            "translation" : [
                7.447011947631836,
                5.328672409057617,
                6.463695049285889
            ]
        }
    ],
    "materials" : [
        {
            "doubleSided" : true,
            "name" : "mat0",
            "pbrMetallicRoughness" : {}
        }
    ],
    "meshes" : [
        {
            "name" : "Test 14 MD REMESH",
            "primitives" : [
                {
                    "attributes" : {
                        "POSITION" : 0,
                        "NORMAL" : 1,
                        "TEXCOORD_0" : 2,
                        "TEXCOORD_1" : 3,
                        "JOINTS_0" : 4,
                        "WEIGHTS_0" : 5
                    },
                    "indices" : 6,
                    "material" : 0
                }
            ]
        }
    ],
    "accessors" : [
        {
            "bufferView" : 0,
            "componentType" : 5126,
            "count" : 13334,
            "max" : [
                2.878108024597168,
                1.2746779918670654,
                -9.642227172851562
            ],
            "min" : [
                -2.895369052886963,
                -1.292423963546753,
                -16.50864028930664
            ],
            "type" : "VEC3"
        },
        {
            "bufferView" : 1,
            "componentType" : 5126,
            "count" : 13334,
            "type" : "VEC3"
        },
        {
            "bufferView" : 2,
            "componentType" : 5126,
            "count" : 13334,
            "type" : "VEC2"
        },
        {
            "bufferView" : 3,
            "componentType" : 5126,
            "count" : 13334,
            "type" : "VEC2"
        },
        {
            "bufferView" : 4,
            "componentType" : 5123,
            "count" : 13334,
            "type" : "VEC4"
        },
        {
            "bufferView" : 5,
            "componentType" : 5126,
            "count" : 13334,
            "type" : "VEC4"
        },
        {
            "bufferView" : 6,
            "componentType" : 5123,
            "count" : 22470,
            "type" : "SCALAR"
        }
    ],
    "bufferViews" : [
        {
            "buffer" : 0,
            "byteLength" : 160008,
            "byteOffset" : 0
        },
        {
            "buffer" : 0,
            "byteLength" : 160008,
            "byteOffset" : 160008
        },
        {
            "buffer" : 0,
            "byteLength" : 106672,
            "byteOffset" : 320016
        },
        {
            "buffer" : 0,
            "byteLength" : 106672,
            "byteOffset" : 426688
        },
        {
            "buffer" : 0,
            "byteLength" : 106672,
            "byteOffset" : 533360
        },
        {
            "buffer" : 0,
            "byteLength" : 213344,
            "byteOffset" : 640032
        },
        {
            "buffer" : 0,
            "byteLength" : 44940,
            "byteOffset" : 853376
        }
    ],
    "buffers" : [
        {
            "byteLength" : 898316,
            "uri" : "data:application/octet-stream;base64,"
        }
    ]
}
