<svg xmlns="http://www.w3.org/2000/svg" viewBox="0 0 153.54 42.65"><defs><style>.cls-1{fill:#daff00;}</style></defs><title>4120-yellow</title><g id="Layer_2" data-name="Layer 2"><g id="Layer_1-2" data-name="Layer 1"><path class="cls-1" d="M125.56,6.21c.55,3.91,2.45,12,2.18,15.47-.37,5.23,21.19,16,25.8,15.25-2,.38-37.33-12.28-42.46-10.53-11.32,3.86-13.11,3.66-14,1C96.29,25.17,90.86.59,98.73.82,117.48,1.37,124.51-1.19,125.56,6.21ZM97.34,17.59c1.23,5.63,1.11,9.83,2.5,9.87,2.87.09,10.16-5.12,15.52-3.73,24.48,6.35,8.64,1.7,8.63-1,0-2-4.88-13.09-5.44-14.71-.48-1.39-1.24-2.57-2.73-2.74C102,3.73,95.09-.68,97.34,17.59Z"/><path class="cls-1" d="M45,.89c.18-.23.55-.19.84-.27,2.87-.81,14.24-1,11.4.36-1,.48-.87,2.32-.94,3.46-.35,5.74-.63,8.66-1,14.36,1.69-.21,73.31,1.64,75,1.34-.14,2.21-70.73-3.69-71,4.7-1.69.27-2.74.32-4.44.51-.13,2.09-.27,4.19-.41,6.28a86,86,0,0,1-8.81.42q.19-3,.41-6c-8.46.1-23.32,4.64-46.08,16.56l5.76-5.43C22.59,36.33,45,.89,45,.89Zm-.62,8.74c-5.56,3.42-13.91,17.74-19.69,19.7,6.51,1.38,15.57-9.66,21.84-9.85l.54-8.21A1.77,1.77,0,0,0,44.39,9.63Z"/><path class="cls-1" d="M71.68,25.85l-.42,6.29c-2.91.28-5.85.43-8.81.42C66-11.35,24.2,29.38,24.2,29.38c.16-.25,36.73-28.28,37-28.3C64.09.93,68.3.46,71.14.28S73.08,6.61,73,7.74c-.36,5.74-.55,5.86-.91,11.56"/><path class="cls-1" d="M84.59,22.8C76,28.14,96,31.6,102.52,31.74,99.6,32,62,27.72,84.76,17.21c17.07-9.29-4.88-24-12.68,2.41-.49,1.67,1.07,11.23,1.07,11.23C71.11,5.6,71.23,1.4,85.05.4c2.85-.21,12-.07,12,1.06q-.54,8.61-1.08,17.16"/></g></g></svg>