<svg xmlns="http://www.w3.org/2000/svg" viewBox="0 0 341.19 96.54"><defs><style>.cls-1{fill:#fff;stroke:#000;stroke-miterlimit:10;}.cls-2{font-size:12.49px;fill:#f61010;font-family:MyriadPro-Regular, Myriad Pro;}</style></defs><title>desert-4120</title><g id="Layer_2" data-name="Layer 2"><g id="Layer_1-2" data-name="Layer 1"><path d="M58.25,13.83H82.36c4.61,0,7,.42,8.67,1.43a5.64,5.64,0,0,1,2.63,5.19,58.38,58.38,0,0,1-2.93,14.36,10.09,10.09,0,0,1-7.24,6.53,26.77,26.77,0,0,1-5.94.42H52.3ZM76.46,35.1c2.89,0,3.68-.16,4.81-.92s1.89-2.13,2.64-5.4a22.39,22.39,0,0,0,.71-4.65c0-2.55-1.13-3.34-4.94-3.34H65.28L62.22,35.1Z"/><path d="M218.51,13.83h24.07c7.41,0,9.51,1.22,9.51,5.49,0,3.31-.92,7.12-2.14,9-1.09,1.63-2.22,2.3-4.73,2.85a10.09,10.09,0,0,1,2.22.41,2.16,2.16,0,0,1,1.42,2.1,19.3,19.3,0,0,1-.54,3.69l-1,4.39h-8.59l.71-3.47a7.06,7.06,0,0,0,.21-1.51,1.7,1.7,0,0,0-1.17-1.8,9.86,9.86,0,0,0-2.93-.25H222.53l-1.51,7h-8.46ZM237.27,27.9c2.46,0,3.43-.17,4.26-.71.67-.46,1-1,1.3-2.43a13.13,13.13,0,0,0,.3-2.13,1.64,1.64,0,0,0-1.26-1.72,7.8,7.8,0,0,0-2.76-.21H225.5L224,27.9Z"/><path d="M268.71,20.74H256.27l1.47-6.91h33.37l-1.47,6.91H277.21l-4.48,21h-8.5Z"/><path class="cls-1" d="M279.47,14.17c1.23,8.61,5.4,26.49,4.82,34.08-.82,11.5,46.65,35.13,56.81,33.58-4.51.82-82.21-27-93.52-23.2-24.91,8.5-28.86,8.06-30.89,2.15-1.66-4.86-13.63-59,3.7-58.47C261.69,3.53,277.16-2.12,279.47,14.17ZM217.35,39.23c2.7,12.41,2.42,21.65,5.5,21.74,6.32.19,22.38-11.27,34.16-8.22,53.92,14,19,3.76,19-2.2-.06-4.34-10.74-28.83-12-32.38-1.06-3.08-2.73-5.68-6-6C227.51,8.71,212.39-1,217.35,39.23Z"/><path class="cls-1" d="M102.1,2.46c.41-.52,1.21-.42,1.85-.6,6.33-1.78,31.36-2.1,25.11.8-2.27,1-1.91,5.12-2.06,7.61-.79,12.64-1.4,19.07-2.2,31.62,3.74-.47,161.44,3.61,165.15,3-.31,4.86-155.75-8.13-156.31,10.35-3.72.6-6,.69-9.77,1.11q-.45,6.93-.91,13.85c-6.42.62-12.89,1-19.41.93q.47-6.57.91-13.15C85.83,58.17,53.1,68.18,3,94.41l12.69-12C52.73,80.5,102.1,2.46,102.1,2.46Zm-1.35,19.25C88.5,29.23,70.11,60.78,57.38,65.09c14.33,3,34.29-21.29,48.1-21.69q.6-9,1.19-18.08A3.91,3.91,0,0,0,100.75,21.71Z"/><path class="cls-1" d="M160.83,57.43q-.47,6.93-.92,13.84a192.52,192.52,0,0,1-19.4.93c7.86-96.7-84.23-7-84.23-7,.35-.55,80.89-62.27,81.54-62.31,6.29-.33,15.57-1.36,21.83-1.77,6.46-.42,4.27,13.94,4.12,16.42-.79,12.65-1.21,12.93-2,25.48"/><path class="cls-1" d="M189.26,50.71c-18.85,11.76,25.05,19.38,39.47,19.68-6.42.63-89.12-8.85-39.1-32,37.6-20.44-10.74-52.73-27.9,5.32-1.09,3.68,2.33,24.73,2.33,24.73-4.48-55.62-4.21-64.86,26.21-67.06,6.28-.45,26.47-.15,26.32,2.34q-1.18,19-2.38,37.79"/><path d="M133.35,13.83,132,20.16H109.49l-1,4.81h21.31l-1.17,5.53H107.27l-1,4.94h22.86l-1.34,6.32H96.51l5.95-27.93Z"/><path d="M144,32.84a7.86,7.86,0,0,0-.17,1.47A1.4,1.4,0,0,0,145,35.73a36.35,36.35,0,0,0,5.24.29c3.51,0,7.07-.08,8.12-.21,2.55-.29,3.56-1.17,3.56-3.05a1.55,1.55,0,0,0-1-1.59c-.83-.29-.83-.29-5.27-.34h-7.7a28.51,28.51,0,0,1-7.5-.63,4.13,4.13,0,0,1-3.14-4.31c0-3.22,1.3-7.28,2.89-9,2.3-2.55,5.82-3.22,16.74-3.22,8.34,0,10.39.16,12.44,1A4,4,0,0,1,172,18.74a13.7,13.7,0,0,1-.54,3.63h-8.25a5.41,5.41,0,0,0,.13-1c0-1.5-1-1.8-5.9-1.8-3.48,0-7.21.13-8.54.25a2.78,2.78,0,0,0-2.77,2.85,1.52,1.52,0,0,0,.63,1.3c.71.46.75.46,4.15.54h7.91c.5,0,1.92,0,4.14.13,3.1.12,4.1.25,5.32.84,1.67.71,2.47,2.09,2.47,4.22,0,3.19-1.17,7-2.76,8.88C165.68,41.3,162.16,42,150.52,42c-7.37,0-9.63-.13-11.8-.59-2.6-.59-3.77-1.92-3.77-4.23a15.73,15.73,0,0,1,.66-4.31Z"/><path d="M211.89,13.83l-1.34,6.33H188L187,25H208.3l-1.18,5.53H185.81l-1.05,4.94h22.86l-1.34,6.32H175.05L181,13.83Z"/><text class="cls-2" transform="translate(296.54 54.12)">*</text></g></g></svg>