<svg xmlns="http://www.w3.org/2000/svg" viewBox="0 0 347.27 101.76"><defs><style>.cls-1,.cls-5{fill:#fff;}.cls-2,.cls-3{fill:#cf0;}.cls-3,.cls-5{stroke:#000;stroke-miterlimit:10;}.cls-3{stroke-width:1.5px;}.cls-4{isolation:isolate;}.cls-5{font-size:48.16px;stroke-width:0.75px;font-family:MyriadPro-Regular, Myriad Pro;}</style></defs><title>4120-logo-y</title><g id="Layer_2" data-name="Layer 2"><g id="Layer_1-2" data-name="Layer 1"><g id="Layer_1-2-2" data-name="Layer 1-2"><path class="cls-1" d="M84.54,43.53l-1.12,0H57.28l6.27-29.43H88.26c4.69,0,7.23.43,9.06,1.54a6.38,6.38,0,0,1,3,5.88,58.71,58.71,0,0,1-3,14.55,10.78,10.78,0,0,1-7.78,7A27.5,27.5,0,0,1,84.54,43.53Zm-2.18-8.18c2.84,0,3.45-.16,4.39-.79s1.57-1.63,2.33-5a21.78,21.78,0,0,0,.69-4.52c0-1.76-.39-2.55-4.19-2.55H71.79L69.05,35.35Z"/><path d="M88.26,14.83c4.61,0,7,.42,8.67,1.43a5.65,5.65,0,0,1,2.63,5.19,58.18,58.18,0,0,1-2.93,14.36,10.07,10.07,0,0,1-7.24,6.53,27.15,27.15,0,0,1-4.84.44l-1.1,0H58.2l6-27.93H88.26M68.12,36.1H82.36c2.89,0,3.68-.16,4.81-.92s1.89-2.13,2.64-5.4a22.16,22.16,0,0,0,.71-4.65c0-2.55-1.13-3.34-4.94-3.34H71.18L68.12,36.1M88.26,13.33H62.94l-.25,1.19L56.74,42.45l-.39,1.81H83.42l1.13,0a28.24,28.24,0,0,0,5.11-.47h.07a11.54,11.54,0,0,0,8.32-7.5,59.88,59.88,0,0,0,3-14.74A7.12,7.12,0,0,0,97.73,15c-2-1.2-4.63-1.66-9.47-1.66Zm-15.86,10H85.58c3.41,0,3.44.53,3.44,1.8a20.9,20.9,0,0,1-.66,4.31c-.76,3.3-1.42,4.13-2,4.53s-1.14.67-4,.67H70L72.4,23.29Z"/><path class="cls-1" d="M243.71,43.51l.9-4.37a6.18,6.18,0,0,0,.19-1.38,1,1,0,0,0-.65-1.07,9.16,9.16,0,0,0-2.06-.23l-.59,0H229l-1.51,7h-10l6.27-29.4h24.67c7,0,10.26.93,10.26,6.24,0,3.43-.95,7.39-2.26,9.41A6.18,6.18,0,0,1,254,32a2.89,2.89,0,0,1,1.55,2.66,19.75,19.75,0,0,1-.56,3.85l-1.13,5Zm-.54-15.36c2.51,0,3.24-.19,3.85-.59.4-.27.68-.56,1-1.95a12.9,12.9,0,0,0,.28-2,.88.88,0,0,0-.68-.95,6.82,6.82,0,0,0-1.79-.23,5.79,5.79,0,0,0-.72,0H232l-1.19,5.7Z"/><path d="M248.48,14.83c7.41,0,9.51,1.22,9.51,5.49,0,3.31-.92,7.12-2.14,9-1.09,1.63-2.22,2.3-4.73,2.85a9.77,9.77,0,0,1,2.22.41,2.16,2.16,0,0,1,1.42,2.1,19.22,19.22,0,0,1-.54,3.69l-1,4.39h-8.59l.71-3.47a6.39,6.39,0,0,0,.21-1.51,1.7,1.7,0,0,0-1.17-1.8,9.82,9.82,0,0,0-2.29-.27l-.64,0h-13l-1.51,7h-8.46l5.95-27.9h24.07M229.9,28.9h13.27c2.46,0,3.43-.17,4.26-.71.67-.46,1-1,1.3-2.43a12.7,12.7,0,0,0,.3-2.13,1.63,1.63,0,0,0-1.26-1.72,7.64,7.64,0,0,0-2-.25,7.14,7.14,0,0,0-.8,0H231.4l-1.5,7.2m18.58-15.57H223.2L223,14.52,217,42.42l-.39,1.81h11.52l.26-1.18,1.25-5.82h11.91a4.87,4.87,0,0,1,.54,0,8.29,8.29,0,0,1,1.86.21.2.2,0,0,1,.11.2v.11a5.17,5.17,0,0,1-.16,1.19V39l-.71,3.47-.37,1.8h11.63l.27-1.17,1-4.39a20.67,20.67,0,0,0,.57-4,3.66,3.66,0,0,0-1-2.63,7.38,7.38,0,0,0,1.82-2c1.39-2.14,2.39-6.27,2.39-9.83,0-5.88-3.87-7-11-7ZM232.62,23.2h12.55c.21,0,.43,0,.64,0a6.6,6.6,0,0,1,1.59.2.17.17,0,0,1,.14.16,11.87,11.87,0,0,1-.27,1.91c-.26,1.23-.45,1.36-.69,1.52-.44.29-1.1.45-3.41.45H231.75l.87-4.2Z"/><polygon class="cls-1" points="269.21 43.49 273.69 22.49 261.25 22.49 263.04 14.08 297.94 14.08 296.15 22.49 283.72 22.49 279.24 43.49 269.21 43.49"/><path d="M297,14.83l-1.47,6.91H283.11l-4.48,21h-8.5l4.48-21H262.17l1.47-6.91H297m1.86-1.5H262.43l-.25,1.19-1.47,6.91-.39,1.81h12.44l-4.09,19.19-.39,1.81h11.57l.25-1.19,4.23-19.81h12.43l.25-1.19,1.47-6.91.39-1.81Z"/><path class="cls-2" d="M345.93,83.65c-3.31,0-9.07-1.62-16.23-4.57l-9.15-2.79C298.16,69.42,267.5,60,256.43,60a9,9,0,0,0-2.71.32c-13.78,4.7-20.8,6.54-25,6.54s-5.83-1.94-6.83-4.86c-1.06-3.1-10.56-44.3-2.08-56.14A7.33,7.33,0,0,1,226,2.56h.28c4.37.13,8.8.19,13.54.19h0c4.65,0,8.94-.06,12.72-.11,3.2-.05,6.12-.09,8.79-.09,16.2,0,23.22,1.74,24.74,12.51.37,2.58,1,6,1.7,9.72,1.66,9,3.54,19.12,3.13,24.53-.5,7,20.29,20.53,39.26,28.36,7.24,2.19,14.86,4.43,16.56,4.43l.24,1.21-.16-1.21.11.74-.06-.75.25,1.48h-.09A7.73,7.73,0,0,1,345.93,83.65Zm-110-73.3c-4.55,0-7.46,1-9.43,3.22C223,17.51,222.22,25.7,224,40.14c.93,4.28,1.52,8.3,2,11.54.75,5.1,1.4,9.5,2.77,9.54h.14c2.22,0,5.81-1.5,10-3.24,5.86-2.45,13.15-5.5,19.71-5.5a18.38,18.38,0,0,1,4.5.54c16,4.17,24.17,6.17,27.66,6.79l-1.22-.72c-4.58-2.69-8.38-5.12-8.38-7.54,0-3.08-6.17-18-9.47-26-1.2-2.93-2.16-5.24-2.48-6.16-1.23-3.57-2.89-5.26-5.37-5.5-4.8-.55-9.27-1.25-13.22-1.88A102.6,102.6,0,0,0,235.89,10.35Z"/><path d="M261.37,3.3c15.64,0,22.52,1.43,24,11.87,1.23,8.61,5.4,26.49,4.82,34.08-.57,8,22.39,22,39.76,29.12-22.57-6.83-60.73-19.1-73.52-19.1a9.77,9.77,0,0,0-3,.36c-13.2,4.5-20.51,6.5-24.77,6.5-3.78,0-5.16-1.57-6.12-4.35C220.94,56.94,209.08,3.31,226,3.31h.25c4.87.14,9.39.19,13.56.19,8.53,0,15.64-.2,21.52-.2M228.91,62c5.66,0,18.68-8.74,29.69-8.74a17.07,17.07,0,0,1,4.31.52c19.89,5.16,27.69,7,29.62,7,3.3,0-10.62-5.47-10.62-9.23-.06-4.34-10.74-28.83-12-32.38-1.06-3.08-2.73-5.68-6-6-11.68-1.33-21.11-3.57-28-3.57-11.12,0-15.7,5.81-12.64,30.63,2.7,12.41,2.42,21.65,5.5,21.74h.16m101,16.4c8.72,2.65,15.11,4.48,16.81,4.48H347a8,8,0,0,1-1,.06c-3.36,0-9.25-1.75-16-4.53M347,82.83h0m-85.63-81c-2.68,0-5.65,0-8.8.09-3.78.05-8.07.11-12.72.11s-9.15-.06-13.51-.19H226a8.07,8.07,0,0,0-6.85,3.63c-8.8,12.31.87,53.56,2,56.82,1,2.79,2.53,5.37,7.54,5.37,4.3,0,11.38-1.85,25.26-6.58a7.8,7.8,0,0,1,2.46-.28c11,0,41.56,9.38,63.9,16.23l9.11,2.79c4.23,1.73,11.91,4.61,16.49,4.61a9.07,9.07,0,0,0,1.21-.07l.13,0-.49-3h0c-1.84,0-11.93-3.06-16.32-4.39-18.69-7.72-39.22-21.15-38.76-27.6.42-5.5-1.47-15.71-3.15-24.72-.68-3.67-1.32-7.13-1.68-9.68C285.12,2.69,276.07,1.8,261.37,1.8ZM224.73,40c-1.71-14-1-22.21,2.29-25.91,1.81-2.05,4.55-3,8.87-3a102.91,102.91,0,0,1,14.61,1.68c4,.63,8.44,1.33,13.24,1.88,2.18.21,3.64,1.75,4.75,5,.34.95,1.25,3.15,2.5,6.2,3.05,7.39,9.38,22.76,9.42,25.71,0,2.28,2.51,4.33,6.11,6.57-5.08-1.17-13-3.2-23.23-5.84a18.49,18.49,0,0,0-4.69-.57c-6.71,0-14.08,3.08-20,5.56-3.92,1.64-7.62,3.18-9.69,3.18h-.11c-.82-.48-1.51-5.15-2.06-8.9-.47-3.23-1.06-7.25-2-11.59Z"/><path class="cls-2" d="M21.28,82.67h.27c36.23-1.87,85.33-78.82,85.82-79.6a2.37,2.37,0,0,1,1.76-.83,4.34,4.34,0,0,0,.52-.09C112.89,1.23,120.4.75,126.14.75,136.27.75,136.55,2,136.68,2.6c.22,1-1,1.53-1.4,1.74-1.47.65-1.53,3.38-1.58,5.57,0,.5,0,1,0,1.4-.41,6.52-.77,11.49-1.13,16.29-.32,4.34-.65,8.82-1,14.51h1.15c8.21,0,40.1.7,73.87,1.44,37.14.82,75.55,1.66,86.41,1.66,2.3,0,2.72,0,2.8-.05l.93-.15-.06.94c-.07,1.17-1.08,1.88-14.43,1.88-7.32,0-16.94-.22-28.07-.47-14.26-.32-30.42-.69-46.12-.69-44.72,0-67.49,3.23-67.69,9.6l0,.62-.61.1c-2.49.4-4.31.57-6.41.77l-2.77.28-.87,13.22,0,.63-.63.07c-6.57.63-12.43.94-17.94.94l-2.35,0,0-.79q.45-6.17.86-12.34c-15,.38-44.48,7.1-100.31,36.33l-4.8,2.52ZM108.67,22.9a3.22,3.22,0,0,0-1.63.45c-5.38,3.31-12,11.33-18.93,19.83-7.53,9.18-15.27,18.63-22,22.41,7-.17,15.19-5.77,23.16-11.2,7.71-5.24,15-10.2,21.36-10.7q.57-8.67,1.14-17.42a3.15,3.15,0,0,0-2.94-3.36Z"/><path d="M126.14,1.5c6.75,0,12.11.63,8.82,2.16-2.27,1-1.91,5.12-2.06,7.61-.79,12.64-1.4,19.07-2.2,31.62.21,0,.87,0,2,0,17.19,0,139.5,3.1,160.28,3.1,1.66,0,2.66,0,2.92-.06-.05.88-5.24,1.18-13.68,1.18-16.74,0-46.3-1.16-74.19-1.16-35.44,0-68.18,1.87-68.44,10.33-3.72.6-6,.69-9.77,1.11q-.45,6.93-.91,13.85c-5.91.57-11.86.94-17.86.94h-1.55q.48-6.57.91-13.15C91.73,59.17,59,69.18,8.9,95.41l12.69-12C58.63,81.5,108,3.46,108,3.46c.41-.52,1.21-.42,1.85-.6,3-.84,10.21-1.36,16.29-1.36M65.84,66.35c14.07,0,32.54-21.57,45.54-21.95q.6-9,1.19-18.08a3.9,3.9,0,0,0-3.64-4.16h-.26a3.89,3.89,0,0,0-2,.56C94.4,30.23,76,61.78,63.28,66.09a12.85,12.85,0,0,0,2.56.26M126.14,0V0h0c-5.79,0-13.39.49-16.69,1.42l-.42.07a3.1,3.1,0,0,0-2.21,1l0,.06,0,.07c-.49.77-49.38,77.4-85.22,79.25l-.56,0-.4.38-12.69,12L0,101.76l9.6-5c54.7-28.64,84-35.63,99.16-36.22q-.39,5.76-.8,11.5l-.12,1.59,1.6,0H111c5.53,0,11.42-.31,18-1l1.26-.12.09-1.27q.42-6.3.83-12.59l2.13-.21c2-.19,3.94-.37,6.46-.78l1.22-.2,0-1.23c0-1.37,2.05-4.77,19.71-6.9,11.05-1.33,26.5-2,47.23-2,15.7,0,31.85.37,46.11.69,11.13.25,20.75.47,28.08.47,4.54,0,7.84-.09,10.1-.27,2.81-.21,5-.52,5.08-2.31l.12-1.89-1.86.31c-.07,0-.52,0-2.68,0-10.86,0-49.29-.84-86.45-1.66-33.75-.74-65.62-1.44-73.83-1.44h-.35c.35-5.3.66-9.56,1-13.69.36-4.8.72-9.77,1.13-16.3,0-.44,0-.92,0-1.43,0-1.77.1-4.45,1.12-4.9,1.46-.68,2.08-1.55,1.84-2.59C137.11,1,135.54.59,133.1.31a64.85,64.85,0,0,0-7-.31ZM69.29,64.42c6.12-4.57,12.84-12.77,19.4-20.76S102.16,27.23,107.44,24a2.37,2.37,0,0,1,1.23-.34h.16a2.48,2.48,0,0,1,1.66.82,2.44,2.44,0,0,1,.59,1.75Q110.53,34.65,110,43c-6.4.78-13.54,5.64-21.07,10.76C82.21,58.33,75.33,63,69.29,64.42Z"/><path class="cls-3" d="M166.73,58.43q-.47,6.93-.92,13.84a190.31,190.31,0,0,1-19.4.93c7.86-96.7-84.23-7-84.23-7,.35-.55,80.89-62.27,81.54-62.31,6.29-.33,15.57-1.36,21.83-1.77,6.46-.42,4.27,13.94,4.12,16.42-.79,12.65-1.21,12.93-2,25.48"/><path class="cls-3" d="M195.16,51.71c-18.85,11.76,25.05,19.38,39.47,19.68-6.42.63-89.12-8.85-39.1-32,37.6-20.44-10.74-52.73-27.9,5.32C166.54,48.39,170,69.44,170,69.44c-4.48-55.62-4.21-64.86,26.21-67.06,6.28-.45,26.47-.15,26.32,2.34q-1.17,19-2.38,37.79"/><polygon class="cls-1" points="101.49 43.51 107.76 14.08 140.18 14.08 138.51 21.91 116 21.91 115.31 25.22 136.63 25.22 135.14 32.25 113.79 32.25 113.09 35.69 135.96 35.69 134.3 43.51 101.49 43.51"/><path d="M139.25,14.83l-1.35,6.33H115.39l-1,4.81H135.7l-1.17,5.53H113.17l-1,4.94H135l-1.34,6.32H102.41l6-27.93h30.89m1.86-1.5h-34l-.25,1.19-6,27.93-.39,1.81h34.35l.25-1.19,1.34-6.32.38-1.81H114L114.4,33h21.35l.25-1.19,1.17-5.53.38-1.81H116.24l.37-1.81h22.51l.25-1.19,1.35-6.33.39-1.81Z"/><path class="cls-1" d="M156.42,43.75c-7.31,0-9.65-.12-11.95-.61-2.94-.66-4.37-2.29-4.37-5a16.91,16.91,0,0,1,.69-4.53l.16-.53,9.88,0-.19.91a6.53,6.53,0,0,0-.16,1.32A.66.66,0,0,0,151,36a35.15,35.15,0,0,0,4.49.28h.61c3.71,0,7.08-.09,8-.2,2.44-.28,2.9-1,2.9-2.31a.83.83,0,0,0-.51-.89c-.7-.24-.7-.24-5-.29h-7.69c-.44,0-.91,0-1.38,0a29.46,29.46,0,0,1-6.28-.68,4.87,4.87,0,0,1-3.73-5.09c0-3.35,1.39-7.62,3.09-9.46,2.48-2.75,6-3.46,17.29-3.46,8.54,0,10.56.17,12.73,1.06a4.74,4.74,0,0,1,3.08,4.82,14.14,14.14,0,0,1-.57,3.78l-.15.54h-9.76l.21-.92a4.13,4.13,0,0,0,.11-.86c0-.6,0-1-5.15-1-3.43,0-7.15.13-8.47.25a2.05,2.05,0,0,0-2.09,2,.84.84,0,0,0,.32.75c.5.32.5.32,3.71.4h7.91c.48,0,1.94,0,4.19.13,3.12.12,4.24.26,5.6.91,1.91.82,2.89,2.47,2.89,4.9,0,3.41-1.23,7.35-2.94,9.36C172,43,168.27,43.75,156.42,43.75Z"/><path d="M162.84,14.67c8.34,0,10.39.16,12.44,1a4,4,0,0,1,2.62,4.07,13.51,13.51,0,0,1-.54,3.63h-8.25a4.81,4.81,0,0,0,.13-1c0-1.5-1-1.8-5.9-1.8-3.48,0-7.21.13-8.54.25A2.78,2.78,0,0,0,152,23.61v.06a1.54,1.54,0,0,0,.63,1.3c.71.46.75.46,4.15.54h7.91c.5,0,1.92,0,4.14.13,3.1.12,4.1.25,5.32.84,1.67.71,2.47,2.09,2.47,4.22,0,3.19-1.17,7-2.76,8.88C171.58,42.3,168.06,43,156.42,43c-7.37,0-9.63-.13-11.8-.59-2.6-.59-3.77-1.92-3.77-4.23a15.74,15.74,0,0,1,.66-4.31l8.39,0a8.08,8.08,0,0,0-.17,1.47,1.4,1.4,0,0,0,1.17,1.42,35.86,35.86,0,0,0,4.63.29h.61c3.51,0,7.07-.08,8.12-.21,2.55-.29,3.56-1.17,3.56-3.05a1.53,1.53,0,0,0-1-1.59c-.83-.29-.83-.29-5.27-.34h-7.7q-.69,0-1.38,0a28.6,28.6,0,0,1-6.12-.66,4.14,4.14,0,0,1-3.14-4.31c0-3.22,1.3-7.28,2.89-9,2.3-2.55,5.82-3.22,16.74-3.22m0-1.5c-10.7,0-15,.56-17.85,3.71-1.82,2-3.26,6.35-3.28,10a5.61,5.61,0,0,0,3.39,5.52h-4.71l-.31,1.07a17.15,17.15,0,0,0-.73,4.72c0,3.05,1.66,5,4.94,5.71,2.38.51,4.76.63,12.13.63,11.45,0,15.75-.57,18.62-4,1.8-2.14,3.11-6.28,3.11-9.85,0-3.41-1.81-4.92-3.35-5.59-.18-.09-.37-.17-.55-.24h4.24l.31-1.08a15,15,0,0,0,.6-4,5.52,5.52,0,0,0-3.58-5.54c-2.38-1-4.78-1.1-13-1.1Zm-9.3,10.58v-.12a1.29,1.29,0,0,1,1.28-1.31h.13c1.3-.11,5-.24,8.4-.24a22.42,22.42,0,0,1,4.4.28,4.08,4.08,0,0,1-.09.69l-.23,1c-1.4-.06-2.33-.06-2.7-.06h-7.91c-2.8-.07-3-.07-3.27-.26Zm.35,9.58h7.66c4.18.05,4.18.05,4.78.26h0s0,0,0,0v.13c0,.73,0,1.31-2.23,1.56-.93.11-4.34.2-8,.2h-.61a34.35,34.35,0,0,1-4.3-.26,6.74,6.74,0,0,1,.14-1.11l.17-.8h.93c.47,0,.95,0,1.42,0Z"/><polygon class="cls-1" points="180.03 43.54 186.3 14.08 218.72 14.08 217.06 21.91 194.51 21.91 193.82 25.25 215.13 25.25 213.63 32.28 192.32 32.28 191.59 35.72 214.45 35.72 212.79 43.54 180.03 43.54"/><path d="M217.79,14.83l-1.34,6.33H193.9l-1,4.84h21.3L213,31.53H191.71l-1.05,4.94h22.86l-1.34,6.32H181l6-28h30.89m1.85-1.5H185.69l-.25,1.19-5.95,28-.39,1.81h34.3l.25-1.19L215,36.78l.38-1.81H192.52l.41-1.94h21.31l.25-1.19,1.18-5.53.39-1.81H194.74l.38-1.84h22.55l.25-1.19,1.34-6.33.38-1.81Z"/><g class="cls-4"><text class="cls-5" transform="translate(299.04 70.59)">*</text></g></g></g></g></svg>